# xmcd
#
# Track frame offsets:
# 150
# 19125
# 35830
# 46867
# 71105
# 84542
# 102195
# 114872
# 131937
# 158870
# 175630
# 184090
# 196812
# 222790
#
# Disc length: 3125 seconds
#
#
# Revision: 4
# Processed by: cddbd v1.5.2PL0 Copyright (c) Steve Scherf et al.
# Submitted via: FreeRIP 2.945 
#
DISCID=bd0c330e
DTITLE=Dominguinhos - Dominguinhos E Convidados Cantam Luiz Gonzaga Vol. 2
DYEAR=1997
DGENRE=Forró
TTITLE0=A Vida Do Viajante (Part. Chico Buarque)
TTITLE1=Tacacá (Part. Joquinha Gonzaga)
TTITLE2=Qui Nem Giló (Part. Tânia Alves)
TTITLE3=De Terezina A São Luís (Part. Fagner)
TTITLE4=Numa Sala De Reboco (Part. Quinteto Violado)
TTITLE5=Súplica Cearense (Part. Guadalupe)
TTITLE6=Não Vendo Nem Troco (Part. Zé Ramalho)
TTITLE7=A Volta Da Asa Branca (Part. Maciel Melo)
TTITLE8=Assum Preto (Part. Ivan Lins)
TTITLE9=Vozes Da Seca (Part. Elba Ramalho)
TTITLE10=No Meu Pé De Serra (Part. Flávio José)
TTITLE11=Nem Se Despediu De Mim (Part. Jorge De Altinho)
TTITLE12=Légua Tirana (Part. Alceu Valença)
TTITLE13=Estrela De Ouro (Part. Dió De Araújo)
EXTD=
EXTT0=Part. Chico Buarque
EXTT1=Part. Joquinha Gonzaga
EXTT2=Part. Tania Alves
EXTT3=Part. Fagner
EXTT4=Part. Quinteto Violado
EXTT5=Part. Guadalupe
EXTT6=Part. Ze Ramalho
EXTT7=Part. Maciel Melo
EXTT8=Part. Ivan Lins
EXTT9=Part. Elba Ramalho
EXTT10=Part. Flavio Jose
EXTT11=Part. Jorge de Altinho
EXTT12=Part. Alceu Valenca
EXTT13=Part. Dio de Araujo
PLAYORDER=
